<svg width="1330" height="299" viewBox="0 0 1330 299" fill="none" xmlns="http://www.w3.org/2000/svg">
<path d="M88.8185 297.902C69.6792 297.902 53.7144 295.293 40.9242 290.077C28.2259 284.952 18.5642 277.95 11.9391 269.072C5.40593 260.195 1.81731 250.219 1.1732 239.145L56.9349 231.869C57.947 236.171 59.8795 240.152 62.732 243.813C65.6765 247.474 69.8633 250.402 75.2923 252.599C80.813 254.795 87.9443 255.894 96.6858 255.894C109.476 255.894 120.61 252.782 130.088 246.558C139.565 240.426 145.408 230.13 147.617 215.67L153.966 177.094H151.482C147.985 182.951 143.2 188.488 137.127 193.705C131.146 198.921 123.831 203.177 115.181 206.472C106.623 209.767 96.732 211.414 85.5059 211.414C69.4952 211.414 55.6007 207.753 43.8226 200.431C32.1365 193.018 23.6711 181.716 18.4262 166.523C13.2733 151.239 12.6292 131.928 16.4939 108.59C20.5426 84.7031 27.8118 64.7513 38.3016 48.7352C48.7916 32.7188 61.2137 20.7295 75.5683 12.7672C89.9226 4.80487 104.875 0.823691 120.426 0.823691C132.296 0.823691 141.866 2.83716 149.135 6.8641C156.496 10.7995 162.155 15.7417 166.112 21.6905C170.069 27.5479 172.875 33.3137 174.532 38.9881H176.878L182.675 3.56933H241.059L205.449 216.494C202.596 234.523 195.741 249.533 184.883 261.522C174.117 273.603 160.453 282.663 143.89 288.704C127.327 294.836 108.97 297.902 88.8185 297.902ZM110.902 167.484C120.288 167.484 128.708 165.15 136.161 160.483C143.706 155.723 150.009 148.951 155.07 140.165C160.131 131.287 163.674 120.671 165.698 108.315C167.722 95.96 167.676 85.2521 165.56 76.1915C163.536 67.0394 159.579 59.9465 153.69 54.9127C147.893 49.8789 140.255 47.3622 130.778 47.3622C121.024 47.3622 112.467 49.9707 105.105 55.1872C97.7441 60.3125 91.6249 67.4511 86.7482 76.6032C81.9632 85.7553 78.6048 96.326 76.6724 108.315C74.6479 120.488 74.5559 131.013 76.3964 139.89C78.3288 148.676 82.1472 155.494 87.8523 160.345C93.5573 165.104 101.241 167.484 110.902 167.484ZM252.515 214.434L287.849 3.56933H344.853L338.643 40.3608H340.85C346.924 27.2733 355.067 17.389 365.279 10.708C375.585 3.93541 386.675 0.549118 398.545 0.549118C401.49 0.549118 404.572 0.732157 407.791 1.09824C411.104 1.37281 414.049 1.83042 416.627 2.47105L407.791 54.501C405.216 53.5856 401.535 52.8535 396.75 52.3045C392.058 51.6639 387.595 51.3434 383.362 51.3434C374.805 51.3434 366.846 53.2196 359.483 56.9719C352.122 60.633 345.912 65.7579 340.85 72.3474C335.883 78.9372 332.615 86.5333 331.052 95.1364L311.314 214.434H252.515ZM465.382 218.416C451.948 218.416 440.309 216.082 430.461 211.414C420.708 206.655 413.533 199.608 408.929 190.273C404.329 180.938 403.181 169.36 405.48 155.54C407.505 143.826 411.322 134.033 416.937 126.162C422.642 118.2 429.587 111.793 437.776 106.943C445.966 102.092 455.03 98.3855 464.969 95.8229C474.998 93.2602 485.35 91.5212 496.023 90.6061C508.355 89.3249 518.384 88.0893 526.112 86.8994C533.934 85.7097 539.777 84.0166 543.642 81.82C547.508 79.5319 549.855 76.1456 550.681 71.6612V70.8373C552.062 62.2346 550.453 55.5533 545.85 50.7944C541.343 45.9436 534.12 43.5184 524.181 43.5184C513.69 43.5184 504.765 45.8065 497.405 50.3824C490.135 54.9586 484.937 60.7701 481.806 67.8171L428.254 63.4242C433.039 50.6113 440.263 39.5372 449.923 30.202C459.679 20.7753 471.409 13.5451 485.119 8.51147C498.832 3.38628 514.197 0.823691 531.22 0.823691C542.998 0.823691 553.994 2.19651 564.208 4.94213C574.514 7.68777 583.393 11.9435 590.848 17.7093C598.391 23.4752 603.82 30.8885 607.133 39.9491C610.537 48.9182 611.229 59.6719 609.204 72.2103L585.325 214.434H529.565L534.532 185.193H532.878C528.368 191.783 522.848 197.594 516.313 202.628C509.782 207.57 502.281 211.46 493.816 214.297C485.35 217.043 475.873 218.416 465.382 218.416ZM488.985 178.054C497.541 178.054 505.409 176.361 512.587 172.975C519.857 169.497 525.836 164.83 530.53 158.973C535.316 153.115 538.352 146.48 539.64 139.067L543.229 116.69C541.389 117.879 538.72 118.932 535.222 119.847C531.818 120.762 528.092 121.632 524.044 122.456C520.088 123.188 516.083 123.874 512.035 124.515C507.987 125.064 504.352 125.613 501.131 126.162C494.046 127.169 487.697 128.771 482.082 130.967C476.471 133.163 471.916 136.138 468.418 139.89C464.923 143.551 462.761 148.127 461.932 153.618C460.645 161.581 462.53 167.667 467.592 171.877C472.745 175.995 479.875 178.054 488.985 178.054ZM710.445 92.5281L690.018 214.434H631.355L666.691 3.56933H722.591L716.518 40.7727H718.865C725.582 28.4173 735.059 18.6703 747.296 11.5317C759.627 4.393 773.659 0.823691 789.395 0.823691C804.116 0.823691 816.401 4.02692 826.246 10.4334C836.184 16.8399 843.178 25.9463 847.225 37.7525C851.367 49.5588 852.056 63.6988 849.296 80.1728L826.662 214.434H767.862L788.705 90.6061C790.822 77.7016 789.164 67.6341 783.734 60.404C778.399 53.0825 769.794 49.4214 757.924 49.4214C750.011 49.4214 742.741 51.1145 736.116 54.501C729.493 57.8873 723.924 62.8293 719.415 69.3272C715 75.734 712.009 83.4675 710.445 92.5281ZM968.79 218.553C947.075 218.553 929.087 214.16 914.824 205.374C900.562 196.496 890.532 183.958 884.736 167.759C879.03 151.468 878.064 132.202 881.836 109.963C885.516 88.2723 892.925 69.2357 904.057 52.8535C915.283 36.4714 929.363 23.704 946.292 14.5519C963.224 5.39976 982.087 0.823691 1002.88 0.823691C1016.87 0.823691 1029.52 3.06595 1040.84 7.5505C1052.25 11.9435 1061.73 18.6246 1069.27 27.5936C1076.82 36.4714 1081.97 47.5911 1084.73 60.9531C1087.58 74.3154 1087.54 89.9655 1084.59 107.904L1081.97 123.966H903.091L908.751 87.7233H1032.42C1033.8 79.3033 1033.25 71.8443 1030.77 65.3463C1028.28 58.848 1024.14 53.7687 1018.34 50.1079C1012.55 46.3556 1005.41 44.4794 996.947 44.4794C988.299 44.4794 980.201 46.5842 972.655 50.7944C965.109 55.0042 958.76 60.5415 953.607 67.4055C948.548 74.178 945.281 81.5454 943.808 89.5079L937.322 125.476C935.482 136.55 935.849 145.748 938.424 153.069C941.094 160.391 945.694 165.882 952.228 169.543C958.76 173.113 967.044 174.897 977.073 174.897C983.605 174.897 989.723 173.982 995.429 172.152C1001.23 170.321 1006.38 167.621 1010.89 164.052C1015.4 160.391 1019.08 155.861 1021.93 150.461L1075.62 154.03C1070.65 167.026 1063.11 178.375 1052.99 188.076C1042.86 197.686 1030.67 205.191 1016.41 210.591C1002.24 215.899 986.365 218.553 968.79 218.553ZM1184.9 92.5281L1164.48 214.434H1105.81L1141.15 3.56933H1197.05L1190.98 40.7727H1193.32C1200.04 28.4173 1209.52 18.6703 1221.75 11.5317C1234.09 4.393 1248.12 0.823691 1263.85 0.823691C1278.57 0.823691 1290.86 4.02692 1300.7 10.4334C1310.64 16.8399 1317.64 25.9463 1321.68 37.7525C1325.82 49.5588 1326.51 63.6988 1323.75 80.1728L1301.12 214.434H1242.32L1263.16 90.6061C1265.28 77.7016 1263.62 67.6341 1258.19 60.404C1252.86 53.0825 1244.25 49.4214 1232.38 49.4214C1224.47 49.4214 1217.2 51.1145 1210.57 54.501C1203.95 57.8873 1198.38 62.8293 1193.87 69.3272C1189.46 75.734 1186.47 83.4675 1184.9 92.5281Z" fill="black"/>
</svg>
