<svg width="438" height="99" viewBox="0 0 438 99" fill="none" xmlns="http://www.w3.org/2000/svg">
<path d="M29.25 98.6364C22.947 98.6364 17.6894 97.7727 13.4773 96.0455C9.29545 94.3485 6.11364 92.0303 3.93182 89.0909C1.7803 86.1515 0.598485 82.8485 0.386364 79.1818L18.75 76.7727C19.0833 78.197 19.7197 79.5152 20.6591 80.7273C21.6288 81.9394 23.0076 82.9091 24.7955 83.6364C26.6136 84.3636 28.9621 84.7273 31.8409 84.7273C36.053 84.7273 39.7197 83.697 42.8409 81.6364C45.9621 79.6061 47.8864 76.197 48.6136 71.4091L50.7045 58.6364H49.8864C48.7348 60.5758 47.1591 62.4091 45.1591 64.1364C43.1894 65.8636 40.7803 67.2727 37.9318 68.3636C35.1136 69.4545 31.8561 70 28.1591 70C22.8864 70 18.3106 68.7879 14.4318 66.3636C10.5833 63.9091 7.79545 60.1667 6.06818 55.1364C4.37121 50.0758 4.15909 43.6818 5.43182 35.9545C6.76515 28.0455 9.15909 21.4394 12.6136 16.1364C16.0682 10.8333 20.1591 6.86363 24.8864 4.22727C29.6136 1.59091 34.5379 0.272728 39.6591 0.272728C43.5682 0.272728 46.7197 0.939395 49.1136 2.27273C51.5379 3.57576 53.4015 5.21212 54.7045 7.18182C56.0076 9.12121 56.9318 11.0303 57.4773 12.9091H58.25L60.1591 1.18182H79.3864L67.6591 71.6818C66.7197 77.6515 64.4621 82.6212 60.8864 86.5909C57.3409 90.5909 52.8409 93.5909 47.3864 95.5909C41.9318 97.6212 35.8864 98.6364 29.25 98.6364ZM36.5227 55.4545C39.6136 55.4545 42.3864 54.6818 44.8409 53.1364C47.3258 51.5606 49.4015 49.3182 51.0682 46.4091C52.7349 43.4697 53.9015 39.9545 54.5682 35.8636C55.2349 31.7727 55.2197 28.2273 54.5227 25.2273C53.8561 22.197 52.553 19.8485 50.6136 18.1818C48.7045 16.5151 46.1894 15.6818 43.0682 15.6818C39.8561 15.6818 37.0379 16.5455 34.6136 18.2727C32.1894 19.9697 30.1742 22.3333 28.5682 25.3636C26.9924 28.3939 25.8864 31.8939 25.25 35.8636C24.5833 39.8939 24.553 43.3788 25.1591 46.3182C25.7955 49.2273 27.053 51.4848 28.9318 53.0909C30.8106 54.6667 33.3409 55.4545 36.5227 55.4545ZM83.1591 71L94.7955 1.18182H113.568L111.523 13.3636H112.25C114.25 9.0303 116.932 5.75757 120.295 3.54546C123.689 1.30303 127.341 0.181816 131.25 0.181816C132.22 0.181816 133.235 0.242421 134.295 0.363632C135.386 0.454544 136.356 0.606059 137.205 0.818176L134.295 18.0455C133.447 17.7424 132.235 17.5 130.659 17.3182C129.114 17.1061 127.644 17 126.25 17C123.432 17 120.811 17.6212 118.386 18.8636C115.962 20.0758 113.917 21.7727 112.25 23.9545C110.614 26.1364 109.538 28.6515 109.023 31.5L102.523 71H83.1591ZM153.261 72.3182C148.837 72.3182 145.004 71.5455 141.761 70C138.549 68.4242 136.186 66.0909 134.67 63C133.155 59.9091 132.777 56.0758 133.534 51.5C134.201 47.6212 135.458 44.3788 137.307 41.7727C139.186 39.1364 141.473 37.0151 144.17 35.4091C146.867 33.803 149.852 32.5758 153.125 31.7273C156.428 30.8788 159.837 30.303 163.352 30C167.413 29.5758 170.716 29.1667 173.261 28.7727C175.837 28.3788 177.761 27.8182 179.034 27.0909C180.307 26.3333 181.08 25.2121 181.352 23.7273V23.4545C181.807 20.6061 181.277 18.3939 179.761 16.8182C178.277 15.2121 175.898 14.4091 172.625 14.4091C169.17 14.4091 166.231 15.1667 163.807 16.6818C161.413 18.197 159.701 20.1212 158.67 22.4545L141.034 21C142.61 16.7576 144.989 13.0909 148.17 10C151.383 6.87878 155.246 4.48484 159.761 2.81818C164.277 1.12121 169.337 0.272728 174.943 0.272728C178.822 0.272728 182.443 0.727272 185.807 1.63636C189.201 2.54545 192.125 3.95454 194.58 5.86363C197.064 7.77273 198.852 10.2273 199.943 13.2273C201.064 16.197 201.292 19.7576 200.625 23.9091L192.761 71H174.398L176.034 61.3182H175.489C174.004 63.5 172.186 65.4242 170.034 67.0909C167.883 68.7273 165.413 70.0152 162.625 70.9545C159.837 71.8636 156.716 72.3182 153.261 72.3182ZM161.034 58.9545C163.852 58.9545 166.443 58.3939 168.807 57.2727C171.201 56.1212 173.17 54.5758 174.716 52.6364C176.292 50.697 177.292 48.5 177.716 46.0455L178.898 38.6364C178.292 39.0303 177.413 39.3788 176.261 39.6818C175.14 39.9848 173.913 40.2727 172.58 40.5455C171.277 40.7879 169.958 41.0152 168.625 41.2273C167.292 41.4091 166.095 41.5909 165.034 41.7727C162.701 42.1061 160.61 42.6364 158.761 43.3636C156.913 44.0909 155.413 45.0758 154.261 46.3182C153.11 47.5303 152.398 49.0455 152.125 50.8636C151.701 53.5 152.322 55.5152 153.989 56.9091C155.686 58.2727 158.034 58.9545 161.034 58.9545ZM233.966 30.6364L227.239 71H207.92L219.557 1.18182H237.966L235.966 13.5H236.739C238.951 9.40909 242.072 6.18182 246.102 3.81818C250.163 1.45454 254.784 0.272728 259.966 0.272728C264.814 0.272728 268.86 1.33333 272.102 3.45454C275.375 5.57575 277.678 8.59091 279.011 12.5C280.375 16.4091 280.602 21.0909 279.693 26.5455L272.239 71H252.875L259.739 30C260.436 25.7273 259.89 22.3939 258.102 20C256.345 17.5758 253.511 16.3636 249.602 16.3636C246.996 16.3636 244.602 16.9242 242.42 18.0455C240.239 19.1667 238.405 20.803 236.92 22.9545C235.466 25.0758 234.481 27.6364 233.966 30.6364ZM319.045 72.3636C311.894 72.3636 305.97 70.9091 301.273 68C296.576 65.0606 293.273 60.9091 291.364 55.5455C289.485 50.1515 289.167 43.7727 290.409 36.4091C291.621 29.2273 294.061 22.9242 297.727 17.5C301.424 12.0758 306.061 7.84848 311.636 4.81818C317.212 1.78788 323.424 0.272728 330.273 0.272728C334.879 0.272728 339.045 1.01515 342.773 2.5C346.53 3.95454 349.652 6.16666 352.136 9.13636C354.621 12.0758 356.318 15.7576 357.227 20.1818C358.167 24.6061 358.152 29.7879 357.182 35.7273L356.318 41.0455H297.409L299.273 29.0455H340C340.455 26.2576 340.273 23.7879 339.455 21.6364C338.636 19.4848 337.273 17.803 335.364 16.5909C333.455 15.3485 331.106 14.7273 328.318 14.7273C325.47 14.7273 322.803 15.4242 320.318 16.8182C317.833 18.2121 315.742 20.0455 314.045 22.3182C312.379 24.5606 311.303 27 310.818 29.6364L308.682 41.5455C308.076 45.2121 308.197 48.2576 309.045 50.6818C309.924 53.1061 311.439 54.9242 313.591 56.1364C315.742 57.3182 318.47 57.9091 321.773 57.9091C323.924 57.9091 325.939 57.6061 327.818 57C329.727 56.3939 331.424 55.5 332.909 54.3182C334.394 53.1061 335.606 51.6061 336.545 49.8182L354.227 51C352.591 55.303 350.106 59.0606 346.773 62.2727C343.439 65.4545 339.424 67.9394 334.727 69.7273C330.061 71.4848 324.833 72.3636 319.045 72.3636ZM390.216 30.6364L383.489 71H364.17L375.807 1.18182H394.216L392.216 13.5H392.989C395.201 9.40909 398.322 6.18182 402.352 3.81818C406.413 1.45454 411.034 0.272728 416.216 0.272728C421.064 0.272728 425.11 1.33333 428.352 3.45454C431.625 5.57575 433.928 8.59091 435.261 12.5C436.625 16.4091 436.852 21.0909 435.943 26.5455L428.489 71H409.125L415.989 30C416.686 25.7273 416.14 22.3939 414.352 20C412.595 17.5758 409.761 16.3636 405.852 16.3636C403.246 16.3636 400.852 16.9242 398.67 18.0455C396.489 19.1667 394.655 20.803 393.17 22.9545C391.716 25.0758 390.731 27.6364 390.216 30.6364Z" fill="black"/>
</svg>
